<svg width="390" height="292" viewBox="0 0 390 292" fill="none" xmlns="http://www.w3.org/2000/svg">
<path d="M403 277.635H-21V277.847H403V277.635Z" fill="#E6E6E6"/>
<path d="M376.203 285.115H360.286V285.327H376.203V285.115Z" fill="#E6E6E6"/>
<path d="M302.732 290.932H295.363V291.144H302.732V290.932Z" fill="#E6E6E6"/>
<path d="M232.823 288.006H216.406V288.218H232.823V288.006Z" fill="#E6E6E6"/>
<path d="M84.2537 287.896H47.6286V288.108H84.2537V287.896Z" fill="#E6E6E6"/>
<path d="M40.0814 287.896H34.7136V288.108H40.0814V287.896Z" fill="#E6E6E6"/>
<path d="M218.967 282.876H139.526V283.088H218.967V282.876Z" fill="#E6E6E6"/>
<path d="M179.976 239.814H16.2357C14.9529 239.812 13.7235 239.301 12.8173 238.393C11.9111 237.485 11.4021 236.255 11.4021 234.972V4.79968C11.4132 3.52431 11.9271 2.30485 12.8322 1.40617C13.7372 0.507493 14.9603 0.00218478 16.2357 0H179.976C181.26 0 182.492 0.510146 183.4 1.41821C184.308 2.32628 184.818 3.55788 184.818 4.84208V234.972C184.818 236.257 184.308 237.488 183.4 238.396C182.492 239.304 181.26 239.814 179.976 239.814ZM16.2357 0.169601C15.0092 0.171847 13.8337 0.660647 12.9672 1.52871C12.1007 2.39678 11.6141 3.57317 11.6141 4.79968V234.972C11.6141 236.199 12.1007 237.375 12.9672 238.243C13.8337 239.111 15.0092 239.6 16.2357 239.602H179.976C181.203 239.6 182.38 239.112 183.247 238.244C184.115 237.376 184.604 236.2 184.606 234.972V4.79968C184.604 3.5724 184.115 2.39602 183.247 1.52819C182.38 0.660372 181.203 0.171842 179.976 0.169601H16.2357Z" fill="#E6E6E6"/>
<path d="M363.407 239.814H199.658C198.375 239.812 197.144 239.301 196.237 238.394C195.329 237.486 194.818 236.256 194.816 234.972V4.79968C194.829 3.52354 195.345 2.30408 196.252 1.40564C197.158 0.507196 198.382 0.00216095 199.658 0H363.407C364.681 0.00441341 365.902 0.510707 366.805 1.40915C367.708 2.30758 368.221 3.52577 368.232 4.79968V234.972C368.232 236.254 367.724 237.483 366.82 238.39C365.915 239.298 364.688 239.81 363.407 239.814ZM199.658 0.169601C198.431 0.171842 197.254 0.660372 196.387 1.52819C195.519 2.39602 195.03 3.5724 195.028 4.79968V234.972C195.03 236.2 195.519 237.376 196.387 238.244C197.254 239.112 198.431 239.6 199.658 239.602H363.407C364.634 239.6 365.811 239.112 366.678 238.244C367.546 237.376 368.035 236.2 368.037 234.972V4.79968C368.035 3.5724 367.546 2.39602 366.678 1.52819C365.811 0.660372 364.634 0.171842 363.407 0.169601H199.658Z" fill="#E6E6E6"/>
<path d="M200.294 15.8406H28.7861V138.063H200.294V15.8406Z" fill="#FAFAFA"/>
<path d="M203.466 15.8406H30.2701V138.063H203.466V15.8406Z" fill="#F5F5F5"/>
<path d="M199.022 133.068V20.8269L34.7136 20.8269V133.068H199.022Z" fill="#FAFAFA"/>
<path d="M64.631 133.068L90.6986 20.8269H124.873L98.8054 133.068H64.631Z" fill="white"/>
<path d="M104.334 133.068L130.41 20.8269H145.844L119.768 133.068H104.334Z" fill="white"/>
<path d="M199.022 133.068V20.8269H198.454V133.068H199.022Z" fill="#FAFAFA"/>
<path d="M25.4534 15.6371V64.0749H38.2667C38.2667 64.0749 61.256 49.0568 66.522 18.1642C66.6497 17.4243 66.6136 16.6654 66.4164 15.941C66.2192 15.2166 65.8657 14.5441 65.3807 13.971C64.8957 13.3979 64.291 12.938 63.6091 12.6237C62.9273 12.3094 62.1848 12.1484 61.434 12.1519H28.9387C28.0143 12.1519 27.1278 12.519 26.4742 13.1727C25.8206 13.8263 25.4534 14.7128 25.4534 15.6371Z" fill="#E0E0E0"/>
<path d="M25.4534 153.013V67.9842H38.2667C38.2667 67.9842 64.2748 118.059 67.2852 153.013H25.4534Z" fill="#E0E0E0"/>
<path d="M37.8936 64.0749H25.9198C25.2126 64.0749 24.6393 64.6482 24.6393 65.3554V66.7037C24.6393 67.4109 25.2126 67.9842 25.9198 67.9842H37.8936C38.6008 67.9842 39.1741 67.4109 39.1741 66.7037V65.3554C39.1741 64.6482 38.6008 64.0749 37.8936 64.0749Z" fill="#F5F5F5"/>
<path d="M207.112 15.6371V64.0749H194.273C194.273 64.0749 171.25 49.0568 166.018 18.1642C165.892 17.4245 165.929 16.6662 166.127 15.9424C166.325 15.2186 166.678 14.5468 167.163 13.974C167.648 13.4013 168.252 12.9414 168.933 12.6266C169.614 12.3119 170.356 12.1498 171.106 12.1518H203.635C204.557 12.1563 205.44 12.5252 206.092 13.1781C206.743 13.831 207.11 14.7149 207.112 15.6371Z" fill="#E0E0E0"/>
<path d="M207.112 153.013V67.9842H194.273C194.273 67.9842 168.274 118.059 165.255 153.013H207.112Z" fill="#E0E0E0"/>
<path d="M194.646 67.9757H206.62C207.327 67.9757 207.901 67.4024 207.901 66.6952V65.3469C207.901 64.6397 207.327 64.0664 206.62 64.0664H194.646C193.939 64.0664 193.366 64.6397 193.366 65.3469V66.6952C193.366 67.4024 193.939 67.9757 194.646 67.9757Z" fill="#F5F5F5"/>
<path d="M203.237 168.464H175.058V277.635H203.237V168.464Z" fill="#FAFAFA"/>
<path d="M195.715 277.635H203.237V265.025H187.828L195.715 277.635Z" fill="#F4F8FF"/>
<path d="M68.4216 168.464H40.2425V277.635H68.4216V168.464Z" fill="#E0E0E0"/>
<path d="M203.237 168.464H61.8581V273.293H203.237V168.464Z" fill="#FAFAFA"/>
<path d="M104.334 149.926C104.334 160.102 114.137 168.464 126.128 168.464H136.948C148.931 168.464 158.734 160.119 158.734 149.926H104.334Z" fill="#EBEBEB"/>
<path d="M98.0592 126.632H118.411C118.411 126.632 114.875 135.96 114.875 141.455C114.875 146.95 130.359 168.464 108.235 168.464C86.1108 168.464 101.595 146.941 101.595 141.455C101.595 135.968 98.0592 126.632 98.0592 126.632Z" fill="#E0E0E0"/>
<path d="M197.402 174.849H67.6923V201.281H197.402V174.849Z" fill="#EBEBEB"/>
<path d="M69.3799 277.635H61.8581V265.025H77.2747L69.3799 277.635Z" fill="#FAFAFA"/>
<path d="M128.562 188.061C128.562 188.849 128.795 189.62 129.233 190.275C129.671 190.931 130.294 191.442 131.022 191.743C131.75 192.045 132.552 192.124 133.325 191.97C134.098 191.816 134.808 191.437 135.366 190.879C135.923 190.322 136.303 189.612 136.456 188.839C136.61 188.065 136.531 187.264 136.23 186.536C135.928 185.807 135.417 185.185 134.762 184.747C134.106 184.309 133.336 184.075 132.547 184.075C131.49 184.075 130.477 184.495 129.729 185.243C128.982 185.99 128.562 187.004 128.562 188.061Z" fill="#FAFAFA"/>
<path d="M197.402 207.667H67.6923V234.099H197.402V207.667Z" fill="#EBEBEB"/>
<path d="M128.562 220.879C128.562 221.667 128.795 222.437 129.233 223.093C129.671 223.748 130.294 224.259 131.022 224.561C131.75 224.862 132.552 224.941 133.325 224.788C134.098 224.634 134.808 224.254 135.366 223.697C135.923 223.139 136.303 222.429 136.456 221.656C136.61 220.883 136.531 220.082 136.23 219.353C135.928 218.625 135.417 218.003 134.762 217.565C134.106 217.127 133.336 216.893 132.547 216.893C131.49 216.893 130.477 217.313 129.729 218.06C128.982 218.808 128.562 219.822 128.562 220.879Z" fill="#FAFAFA"/>
<path d="M197.402 240.476H67.6923V266.908H197.402V240.476Z" fill="#EBEBEB"/>
<path d="M132.547 257.682C134.749 257.682 136.533 255.897 136.533 253.696C136.533 251.495 134.749 249.711 132.547 249.711C130.346 249.711 128.562 251.495 128.562 253.696C128.562 255.897 130.346 257.682 132.547 257.682Z" fill="#FAFAFA"/>
<path d="M292.658 14.3651H229.711V59.1734H292.658V14.3651Z" fill="#E0E0E0"/>
<path d="M297.797 14.3651H233.29V59.1734H297.797V14.3651Z" fill="#F5F5F5"/>
<path d="M293.684 55.0606V18.4779L237.403 18.4779V55.0606H293.684Z" fill="white"/>
<path d="M283.78 44.4013V29.1288L247.307 29.1288V44.4013H283.78Z" fill="#F5F5F5"/>
<path d="M343.725 36.7693H305.412V76.9476H343.725V36.7693Z" fill="#E0E0E0"/>
<path d="M348.881 36.7693H308.999V76.9476H348.881V36.7693Z" fill="#F5F5F5"/>
<path d="M344.768 72.8347V40.8821H313.112V72.8347H344.768Z" fill="white"/>
<path d="M323.017 56.8584C323.017 55.4475 323.577 54.0942 324.574 53.0957C325.57 52.0973 326.923 51.5352 328.334 51.5329H329.538C330.949 51.5352 332.301 52.0973 333.298 53.0957C334.295 54.0942 334.855 55.4475 334.855 56.8584C334.855 58.2685 334.295 59.6209 333.298 60.618C332.3 61.6152 330.948 62.1754 329.538 62.1754H328.376C327.674 62.181 326.978 62.0476 326.328 61.7829C325.678 61.5182 325.087 61.1274 324.589 60.6331C324.091 60.1388 323.695 59.5508 323.425 58.9029C323.156 58.2551 323.017 57.5602 323.017 56.8584Z" fill="#F5F5F5"/>
<path d="M403 90.6088H301.834H283.44V113.988H265.047V137.368H246.654V160.747H228.261V184.126H209.868V207.497H191.475V230.876H173.082V254.256H154.689V277.635H173.082H403V90.6088Z" fill="#FAFAFA"/>
<path d="M257.636 254.256H152.798V261.269H257.636V254.256Z" fill="#EBEBEB"/>
<path d="M276.029 230.876H171.191V237.889H276.029V230.876Z" fill="#EBEBEB"/>
<path d="M294.422 207.497H189.584V214.51H294.422V207.497Z" fill="#EBEBEB"/>
<path d="M312.815 184.118H207.977V191.131H312.815V184.118Z" fill="#EBEBEB"/>
<path d="M331.208 160.747H226.37V167.76H331.208V160.747Z" fill="#EBEBEB"/>
<path d="M349.601 137.368H244.763V144.38H349.601V137.368Z" fill="#EBEBEB"/>
<path d="M367.995 113.988H263.156V121.001H367.995V113.988Z" fill="#EBEBEB"/>
<path d="M386.388 90.6088H281.549V97.6217H386.388V90.6088Z" fill="#EBEBEB"/>
<path d="M384.607 90.6088V113.988H366.214V137.368H347.821V160.747H329.427V184.126H311.034V207.497H292.641V230.876H274.248V254.256H255.855V277.635H274.248H403V113.988V90.6088H384.607Z" fill="white"/>
</svg>
